<?xml version="1.0" encoding="utf-8"?>
<!-- Generator: Adobe Illustrator 24.0.2, SVG Export Plug-In . SVG Version: 6.00 Build 0)  -->
<svg version="1.1" id="Ebene_1" xmlns="http://www.w3.org/2000/svg" xmlns:xlink="http://www.w3.org/1999/xlink" x="0px" y="0px" viewBox="0 0 200 200" style="enable-background:new 0 0 200 200;" xml:space="preserve">
	<rect style="fill:#3A9DD8;" width="200" height="200" />
	<path style="fill:#B2E7F1;" d="M61.3,54.8c0,0,11.4-8,21.3-0.3c9.5,7.3,6.9,19.1,6.9,19.1s20.9,14,29,32.2s10.7,45,10.7,45L89,150.6
	L61.3,54.8z" />
	<g>
		<g>
			<path style="fill:#E7EFFA;" d="M57,135.1c-14.2,13.8-3.4,40.3,16.8,39.6c0,0,90.1,0,90.1,0c12.9,0,23.4-10.5,23.4-23.4
			c0-12.9-10.5-23.4-23.4-23.4c0,0-59.5,0-59.5,0l-6.2-34.9" />
			<path style="fill:#E7EFFA;" d="M31.2,93.2" />
			<path style="fill:#EF8BBD;" d="M50.7,155.2c1.6,11.3,11.4,20,23.2,20H164c11.8,0,21.5-8.7,23.2-20L50.7,155.2z" />
			<path style="fill:#DCB6F5;" d="M165.3,128c2.6,3.5,4.1,7.8,4.1,12.5c0,11.5-9.3,20.9-20.7,20.9H69c-8,0-14.9-4.5-18.3-11.2
			c0,0.5,0,0.9,0,1.4c0,13,10.5,23.6,23.4,23.6H164c12.9,0,23.4-10.6,23.4-23.6C187.4,139,177.6,128.7,165.3,128L165.3,128z" />
			<path style="fill:#E068BD;" d="M164,175.1c11.8,0,21.5-8.7,23.2-20h-23.6c-3.8,3.9-9.1,6.3-14.9,6.3H68.9
			c-5.9,0-11.1-2.4-14.9-6.3h-3.2c1.6,11.3,11.4,20,23.2,20H164z" />
			<g>
				<path style="fill:#AD99C9;" d="M153.1,142.6c-1.1,0-1.9-0.9-1.9-1.9v-3.9c0-1.1,0.9-1.9,1.9-1.9c1.1,0,1.9,0.9,1.9,1.9v3.9
				C155,141.7,154.2,142.6,153.1,142.6z" />
			</g>
			<g>
				<path style="fill:#AD99C9;" d="M142.3,147.9c-1.1,0-1.9-0.9-1.9-1.9v-3.9c0-1.1,0.9-1.9,1.9-1.9s1.9,0.9,1.9,1.9v3.9
				C144.2,147,143.4,147.9,142.3,147.9z" />
			</g>
			<g>
				<path style="fill:#AD99C9;" d="M124.2,143.5c-1.1,0-1.9-0.9-1.9-1.9v-3.9c0-1.1,0.9-1.9,1.9-1.9c1.1,0,1.9,0.9,1.9,1.9v3.9
				C126.1,142.7,125.2,143.5,124.2,143.5z" />
			</g>
			<g>
				<path style="fill:#FFFFFF;" d="M84.9,164.3c-1.6,0-3.1,0-4.7,0c-1.8,0-3.2-1.5-3.2-3.2c0-1.8,1.4-3.2,3.2-3.2c0,0,0,0,0,0
				c4.2,0,7.9,0,12.4,0c1.8,0,3.2,1.4,3.2,3.2c0,1.8-1.4,3.2-3.2,3.2C89.9,164.3,87.4,164.3,84.9,164.3L84.9,164.3z" />
			</g>
			<g>
				<path style="fill:#FFFFFF;" d="M70.8,164.2h-2c-1.8,0-3.2-1.4-3.2-3.2c0-1.8,1.4-3.2,3.2-3.2h2c1.8,0,3.2,1.4,3.2,3.2
				C74.1,162.8,72.6,164.2,70.8,164.2z" />
			</g>
			<path style="fill:#FFE266;" d="M111.4,53.3L81.8,72C79.4,74.5,92,86.8,94.5,84.3L113.1,55C113.8,53.9,112.6,52.6,111.4,53.3z" />
		</g>
		<g>
			<path style="fill:#FEF2A8;" d="M167.6,82.9l2.6,7.4c0.1,0.3,0.3,0.6,0.6,0.7l6.6,3c0.9,0.4,0.9,1.9,0,2.3l-6.6,3
			c-0.3,0.1-0.5,0.4-0.6,0.7l-2.6,7.4c-0.4,1-1.7,1-2.1,0l-2.6-7.4c-0.1-0.3-0.3-0.6-0.6-0.7l-6.6-3c-0.9-0.4-0.9-1.9,0-2.3l6.6-3
			c0.3-0.1,0.5-0.4,0.6-0.7l2.6-7.4C166,81.9,167.3,81.9,167.6,82.9L167.6,82.9z" />
			<path style="fill:#FEF2A8;" d="M121.2,22.7l2,5.5c0.1,0.2,0.2,0.4,0.5,0.5l4.9,2.2c0.7,0.3,0.7,1.4,0,1.7l-4.9,2.2
			c-0.2,0.1-0.4,0.3-0.5,0.5l-2,5.5c-0.3,0.8-1.3,0.8-1.5,0l-2-5.5c-0.1-0.2-0.2-0.4-0.5-0.5l-4.9-2.2c-0.7-0.3-0.7-1.4,0-1.7
			l4.9-2.2c0.2-0.1,0.4-0.3,0.5-0.5l2-5.5C120,21.9,121,21.9,121.2,22.7z" />
			<path style="fill:#FEF2A8;" d="M145,54.2l2,5.5c0.1,0.2,0.2,0.4,0.5,0.5l4.9,2.2c0.7,0.3,0.7,1.4,0,1.7l-4.9,2.2
			c-0.2,0.1-0.4,0.3-0.5,0.5l-2,5.5c-0.3,0.8-1.3,0.8-1.5,0l-2-5.5c-0.1-0.2-0.2-0.4-0.5-0.5l-4.9-2.2c-0.7-0.3-0.7-1.4,0-1.7
			l4.9-2.2c0.2-0.1,0.4-0.3,0.5-0.5l2-5.5C143.7,53.4,144.7,53.4,145,54.2z" />
		</g>
		<circle style="fill:#FFE266;" cx="129.1" cy="97.1" r="3.9" />
		<ellipse style="fill:#FFE266;" cx="85.4" cy="37.5" rx="3" ry="3" />
	</g>
	<ellipse style="fill:#FFE266;" cx="170.7" cy="38.8" rx="3" ry="3" />
	<g id="Bear_3_">
		<g>
			<g>
				<path style="fill:none;" d="M61.6,60.8c-1.3-0.3-2.7,0.5-3,1.9c-0.3,1.3,0.5,2.7,1.9,3c1.3,0.3,2.7-0.5,3-1.9
				C63.7,62.5,62.9,61.1,61.6,60.8z" />
				<path style="fill:#FF0000;" d="M27.5,140.6c2,1.1,4.8,1.7,6.8,2.5l0.6-2.8C32.2,139.1,29.9,140.1,27.5,140.6z" />
				<path style="fill:#E7EFFA;" d="M42.3,93.1c-5.5-2.9-6.4-5.6-7-10.3l-1-3.8c-5.6,2.8-11.1,6-16.6,9c1.8,5.8,4,11.4,6,17.1
				c0.5,2.1,2.1,3.8,3.8,4.9c8.5,3.9,23.6,7.5,32,11.1c1.3-8.6,8.7-15.6,3.1-22.9" />
				<path style="fill:#FF0000;" d="M29.5,132.5l6.8,2.7l0.7-3.2C34.4,131.2,32,132,29.5,132.5z" />
				<path style="fill:#FF0000;" d="M28.4,136.5c2.3,0.9,4.6,2.2,7.1,2.5l0.6-2.7C33.3,135.2,31,136.2,28.4,136.5z" />
				<path style="fill:#FF0000;" d="M10,77.6l2.5,6.6c0.9-0.2,2.1-0.5,2.8-1.4C14.2,80.2,12.1,79,10,77.6z" />
				<path style="fill:#FF0000;" d="M29.9,51.8l16.6,18l0.5-2.1c-4.3-5.4-9-10.2-13.3-15.7c-1.7-1.7-1.4-3.7-1.4-5.7
				c0.8-2.2,2.4-4.3,5-4.9c-2.4-0.6-5.2-1.3-7.5,0.1c-1.6,1-2.4,2.6-2.6,4.6C27.1,48.1,28.6,50.2,29.9,51.8z" />
				<path style="fill:#FF0000;" d="M38.2,128c-2.7-0.9-5.3,0-7.5,0.5c2.5,0.5,4.6,2.2,7.1,2.3C38,129.9,38.4,128.9,38.2,128z" />
				<path style="fill:#FF0000;" d="M28,76.6l2.3-1.3c-0.8-3-3.7-3.5-5.2-5.7C25.9,72,26.6,74.6,28,76.6z" />
				<path style="fill:#FF0000;" d="M26.5,77.4c-0.8-2.8-3.5-4-5.4-5.8l2.7,6.9C24.7,78.5,25.6,77.8,26.5,77.4z" />
				<path style="fill:#FF0000;" d="M18.9,81.2c-0.8-2.8-3.5-4-5.4-5.7c1.1,2.3,1.7,4.9,3.1,7L18.9,81.2z" />
				<path style="fill:#FF0000;" d="M22.8,79c-0.9-2.6-3.5-3.7-5.3-5.3l2.7,6.9L22.8,79z" />
				<path style="fill:#E7EFFA;" d="M98.3,93L98.3,93c0.9-1.5-2.6-8.6-4-9.9c-5.3-4.3-9.9-9.7-15.9-12.9c1.1-0.5,2.5-1.2,3.2-2.2
				c1.1-1.8,0.8-4-0.3-5.7c-1.2-1.9-3.9-2.5-6-2.3c-2.4,0.5-2.8,2.7-3.7,4.3L71,62.9l-8.2-7.3l-1.9-0.7c-1,0.3-1.9,1.1-2.3,2
				c-5.8-5.4-10-7.8-15.9-12.8c-0.3,1.7-2.7,5-2.7,9l10.6,11.6l0.5,1.7c0,2.2-0.8,4.4-2.8,5.4c-5.3,1.4-7.8-4.6-11-7.9l-1.4,6.2
				l22,24.6c1.9,3,2.5,6.3,2.7,9.6c-1.8,11.4-6.9,21.4-6.2,24.9c1.1-0.6-6.9-1.7-11.9-4.3l-5.4,19.5l15.1,6c1.5,0.6,3.6,1.5,5.2,0.8
				 M60.9,65.8c-1.8-0.1-3-2-2.1-3.7c0.4-0.8,1.3-1.3,2.2-1.3c1.8,0,3,1.7,2.4,3.3C63,65.1,62,65.8,60.9,65.8z" />
				<path style="fill:#FF0000;" d="M31.8,124.1c2.2,1,4.6,1.9,7,2.7l0.6-2.7C36.7,123.2,34.3,123.8,31.8,124.1z" />
			</g>
		</g>

		<rect x="-66.1" y="-10.4" transform="matrix(0.2244 -0.9745 0.9745 0.2244 -69.6712 177.9615)" style="fill:none;" width="286.2" height="286.2" />
	</g>
</svg>