<?xml version="1.0" encoding="utf-8"?>
<!-- Generator: Adobe Illustrator 23.1.1, SVG Export Plug-In . SVG Version: 6.00 Build 0)  -->
<svg version="1.1" id="Layer_1" xmlns="http://www.w3.org/2000/svg" xmlns:xlink="http://www.w3.org/1999/xlink" x="0px" y="0px" viewBox="0 0 474 474" style="enable-background:new 0 0 474 474;" xml:space="preserve">
	<style type="text/css">
	.st0{clip-path:url(#SVGID_2_);fill:#3A9DD8;}
	.st1{clip-path:url(#SVGID_4_);}
	.st2{fill:#3A9DD8;}
	.st3{clip-path:url(#SVGID_6_);fill:#3A9DD8;}
	.st4{clip-path:url(#SVGID_8_);fill:#3A9DD8;}
	.st5{clip-path:url(#SVGID_10_);fill:#3A9DD8;}
	.st6{clip-path:url(#SVGID_12_);fill:#3A9DD8;}
	.st7{clip-path:url(#SVGID_14_);fill:#3A9DD8;}
	.st8{clip-path:url(#SVGID_16_);fill:#3A9DD8;}
</style>
	<g>
		<g>
			<g>
				<defs>
					<rect id="SVGID_1_" width="474" height="474" />
				</defs>
				<use xlink:href="#SVGID_1_" style="overflow:visible;fill:#FFFFFF;" />
				<clipPath id="SVGID_2_">
					<use xlink:href="#SVGID_1_" style="overflow:visible;" />
				</clipPath>
				<path class="st0" d="M0,0v474h474" />
			</g>
		</g>
		<g>
			<g>
				<defs>
					<rect id="SVGID_3_" width="474" height="474" />
				</defs>
				<clipPath id="SVGID_4_">
					<use xlink:href="#SVGID_3_" style="overflow:visible;" />
				</clipPath>
				<g class="st1">
					<path id="Fill-20" class="st2" d="M176.7,114.9c13.2,28.1,46.7,40.2,74.8,27c28.1-13.2,40.2-46.7,27-74.8s-46.7-40.2-74.8-27
					S163.5,86.8,176.7,114.9L176.7,114.9z M388.3,357.5c-0.7-9.3-1.6-23.3-17.9-39.5s-30.3-17-39.6-17.6c-6.2-0.4-8.1-0.5-13.9-6.2
					s-5.9-7.6-6.3-13.8c-0.7-9.3-1.6-23.3-17.9-39.5s-30.3-17-39.6-17.6c-6.2-0.4-8.1-0.5-13.9-6.2s-5.9-7.6-6.3-13.8
					c-0.4-5.2-0.9-12-4.2-19.7c7.3-7.6,19-14.8,36-18c8.9-1.7,84-14.5,84-14.5l-8.3-68.4c-1.3-10.8,6.4-20.7,17.2-22
					c10.8-1.3,20.7,6.4,22,17.2l10.6,87c1.3,10.5-5.9,20.1-16.3,21.9l-66.3,11.4l80.7,131.4c7.4,12.1,8.3,26.4,3.7,38.8
					C388.8,364.7,388.6,362.5,388.3,357.5L388.3,357.5z M125.2,128c-0.5-7-0.8-12.1-9.1-20.3c-3.5-3.5-3.5-9.2,0-12.7
					s9.2-3.5,12.7,0c13.1,13,13.8,23.4,14.4,31.8c0.5,7.3,0.9,12.6,9.9,21.5s14.2,9.2,21.6,9.7c8.4,0.5,18.8,1.2,31.9,14.2
					c13.1,13,13.8,23.4,14.4,31.8c0.5,7.3,0.9,12.6,9.9,21.5s14.2,9.2,21.6,9.7c8.4,0.5,18.8,1.2,31.9,14.2s13.8,23.4,14.4,31.8
					c0.5,7.3,0.9,12.6,9.9,21.5s14.2,9.2,21.6,9.7c8.4,0.5,18.8,1.2,31.9,14.2s13.8,23.4,14.4,31.8c0.5,7.3,0.9,12.6,9.9,21.5
					s14.2,9.2,21.6,9.7c8.4,0.5,18.8,1.2,31.9,14.2c3.5,3.5,3.5,9.2,0,12.7s-9.2,3.5-12.7,0c-8.3-8.2-13.4-8.6-20.4-9
					c-8.6-0.5-19.3-1.2-33.1-14.9s-14.5-24.4-15.1-33c-0.5-7-0.8-12.1-9.1-20.3c-8.3-8.2-13.4-8.6-20.4-9
					c-8.6-0.5-19.3-1.2-33.1-14.9c-13.8-13.7-14.5-24.4-15.1-33c-0.5-7-0.8-12.1-9.1-20.3c-8.3-8.2-13.4-8.5-20.4-9
					c-8.6-0.5-19.3-1.2-33.1-14.9s-14.5-24.4-15.1-33c-0.5-7-0.8-12.1-9.1-20.3s-13.4-8.6-20.4-9c-8.6-0.5-19.3-1.2-33.1-14.9
					C126.6,147.3,125.8,136.6,125.2,128L125.2,128z M125.2,128c-0.5-7-0.8-12.1-9.1-20.3c-3.5-3.5-3.5-9.2,0-12.7s9.2-3.5,12.7,0
					c13.1,13,13.8,23.4,14.4,31.8c0.5,7.3,0.9,12.6,9.9,21.5s14.2,9.2,21.6,9.7c8.4,0.5,18.8,1.2,31.9,14.2
					c13.1,13,13.8,23.4,14.4,31.8c0.5,7.3,0.9,12.6,9.9,21.5s14.2,9.2,21.6,9.7c8.4,0.5,18.8,1.2,31.9,14.2s13.8,23.4,14.4,31.8
					c0.5,7.3,0.9,12.6,9.9,21.5s14.2,9.2,21.6,9.7c8.4,0.5,18.8,1.2,31.9,14.2s13.8,23.4,14.4,31.8c0.5,7.3,0.9,12.6,9.9,21.5
					s14.2,9.2,21.6,9.7c8.4,0.5,18.8,1.2,31.9,14.2c3.5,3.5,3.5,9.2,0,12.7s-9.2,3.5-12.7,0c-8.3-8.2-13.4-8.6-20.4-9
					c-8.6-0.5-19.3-1.2-33.1-14.9s-14.5-24.4-15.1-33c-0.5-7-0.8-12.1-9.1-20.3c-8.3-8.2-13.4-8.6-20.4-9
					c-8.6-0.5-19.3-1.2-33.1-14.9c-13.8-13.7-14.5-24.4-15.1-33c-0.5-7-0.8-12.1-9.1-20.3c-8.3-8.2-13.4-8.5-20.4-9
					c-8.6-0.5-19.3-1.2-33.1-14.9s-14.5-24.4-15.1-33c-0.5-7-0.8-12.1-9.1-20.3s-13.4-8.6-20.4-9c-8.6-0.5-19.3-1.2-33.1-14.9
					C126.6,147.3,125.8,136.6,125.2,128L125.2,128z" />
					<path class="st2" d="M252.2,255c-8.6-0.5-19.3-1.2-33.1-14.9c-13.8-13.7-14.5-24.4-15.1-33c-0.5-7-0.9-12.1-9.1-20.3
					s-13.4-8.6-20.4-9c-8.6-0.5-19.3-1.2-33.1-14.9s-14.5-24.4-15.1-33c-0.5-7-0.9-12.1-9.1-20.3c-8.3-8.2-13.4-8.6-20.4-9
					c-8.6-0.5-19.3-1.2-33.1-14.9s-14.5-24.4-15.1-33c-0.5-7-0.8-12.1-9.1-20.3S26,23.9,19,23.4c-8.6-0.5-19.3-1.2-33.1-14.9
					s-14.5-24.4-15.1-33l0,0c-0.5-7-0.8-12.1-9.1-20.3c-3.5-3.5-3.5-9.2,0-12.7s9.2-3.5,12.7,0c13.1,13,13.8,23.4,14.4,31.8
					c0.5,7.3,0.9,12.6,9.9,21.5S12.9,5,20.3,5.5C28.5,6,38.9,6.7,52,19.7s13.8,23.4,14.4,31.8c0.5,7.3,0.9,12.6,9.9,21.5
					s14.2,9.2,21.5,9.7c8.4,0.5,18.8,1.2,31.9,14.2c13.1,13,13.8,23.4,14.4,31.8c0.5,7.3,0.9,12.6,9.9,21.5s14.2,9.2,21.5,9.7
					c8.4,0.5,18.8,1.2,31.9,14.2c13.1,13,13.8,23.4,14.4,31.8c0.5,7.3,0.9,12.6,9.9,21.5s14.2,9.2,21.5,9.7
					c8.4,0.5,18.8,1.2,31.9,14.2c3.5,3.5,3.5,9.2,0,12.7s-9.2,3.5-12.7,0" />
					<path class="st2" d="M484.7,484.8c-8.6-0.5-19.3-1.2-33.1-14.9c-13.8-13.7-14.5-24.4-15.1-33c-0.5-7-0.9-12.1-9.1-20.3
					c-8.3-8.2-13.4-8.6-20.4-9c-8.6-0.5-19.3-1.2-33.1-14.9s-14.5-24.4-15.1-33c-0.5-7-0.9-12.1-9.1-20.3c-8.3-8.2-13.4-8.6-20.4-9
					c-8.6-0.5-19.3-1.2-33.1-14.9c-13.8-13.7-14.5-24.4-15.1-33c-0.5-7-0.8-12.1-9.1-20.3c-8.3-8.2-13.4-8.6-20.4-9
					c-8.6-0.5-19.3-1.2-33.1-14.9s-14.5-24.4-15.1-33l0,0c-0.5-7-0.8-12.1-9.1-20.3c-3.5-3.5-3.5-9.2,0-12.7s9.2-3.5,12.7,0
					c13.1,13,13.8,23.4,14.4,31.8c0.5,7.3,0.9,12.6,9.9,21.5s14.2,9.2,21.6,9.7c8.4,0.5,18.8,1.2,31.9,14.2
					c13.1,13,13.8,23.4,14.4,31.8c0.5,7.3,0.9,12.6,9.9,21.5s14.2,9.2,21.5,9.7c8.4,0.5,18.8,1.2,31.9,14.2s13.8,23.4,14.4,31.8
					c0.5,7.3,0.9,12.6,9.9,21.5s14.2,9.2,21.5,9.7c8.4,0.5,18.8,1.2,31.9,14.2s13.8,23.4,14.4,31.8c0.5,7.3,0.9,12.6,9.9,21.5
					s14.2,9.2,21.5,9.7c8.4,0.5,18.8,1.2,31.9,14.2c3.5,3.5,3.5,9.2,0,12.7s-9.2,3.5-12.7,0" />
				</g>
			</g>
		</g>
		<g>
			<g>
				<defs>
					<rect id="SVGID_5_" width="474" height="474" />
				</defs>
				<clipPath id="SVGID_6_">
					<use xlink:href="#SVGID_5_" style="overflow:visible;" />
				</clipPath>
				<rect x="14" y="24" class="st3" width="37" height="34" />
			</g>
		</g>
		<g>
			<g>
				<defs>
					<rect id="SVGID_7_" width="474" height="474" />
				</defs>
				<clipPath id="SVGID_8_">
					<use xlink:href="#SVGID_7_" style="overflow:visible;" />
				</clipPath>
				<rect x="91" y="99" class="st4" width="37" height="34" />
			</g>
		</g>
		<g>
			<g>
				<defs>
					<rect id="SVGID_9_" width="474" height="474" />
				</defs>
				<clipPath id="SVGID_10_">
					<use xlink:href="#SVGID_9_" style="overflow:visible;" />
				</clipPath>
				<rect x="171" y="174" class="st5" width="37" height="34" />
			</g>
		</g>
		<g>
			<g>
				<defs>
					<rect id="SVGID_11_" width="474" height="474" />
				</defs>
				<clipPath id="SVGID_12_">
					<use xlink:href="#SVGID_11_" style="overflow:visible;" />
				</clipPath>
				<rect x="248" y="250" class="st6" width="37" height="34" />
			</g>
		</g>
		<g>
			<g>
				<defs>
					<rect id="SVGID_13_" width="474" height="474" />
				</defs>
				<clipPath id="SVGID_14_">
					<use xlink:href="#SVGID_13_" style="overflow:visible;" />
				</clipPath>
				<rect x="323" y="327" class="st7" width="37" height="34" />
			</g>
		</g>
		<g>
			<g>
				<defs>
					<rect id="SVGID_15_" width="474" height="474" />
				</defs>
				<clipPath id="SVGID_16_">
					<use xlink:href="#SVGID_15_" style="overflow:visible;" />
				</clipPath>
				<rect x="402" y="407.7" class="st8" width="37" height="34" />
			</g>
		</g>
	</g>
</svg>