<?xml version="1.0" encoding="utf-8"?>
<!-- Generator: Adobe Illustrator 23.1.1, SVG Export Plug-In . SVG Version: 6.00 Build 0)  -->
<svg version="1.1" id="Layer_1" xmlns="http://www.w3.org/2000/svg" xmlns:xlink="http://www.w3.org/1999/xlink" x="0px" y="0px"
	 viewBox="0 0 512 512" style="enable-background:new 0 0 512 512;" xml:space="preserve">
<style type="text/css">
	.st0{fill:#376351;}
	.st1{display:none;}
	.st2{display:inline;fill:#FFFFFF;}
	.st3{display:inline;}
	.st4{display:inline;fill:#376351;}
	.st5{fill:#FFFFFF;}
</style>
<g id="Layer_3">
	<rect class="st0" width="512" height="512"/>
</g>
<g id="BACKUPs">
	<g id="v0" class="st1">
		<path class="st2" d="M256,229.1c69,0,128.9,14.2,162.5,24.2c0-3.1,0-6.1,0-8.8c0-7.8,0-13.5,0-13.6
			c-0.7-79.4-59.3-143.6-133.2-143.6h-55.6c-73.9,0-135.5,64.2-136.3,143.6c0,0.2,0,5.9,0,13.6c0,2.7,0,5.7,0,8.8
			C127.1,243.3,187,229.1,256,229.1z"/>
		<path class="st2" d="M97.5,307.3c7.5-2.3,15.1-4.4,22.8-6.4c11.6,64.4,67.9,113.3,135.7,113.3c67.9,0,124.4-49.1,135.8-113.8
			c7.6,2,15.2,4.1,22.7,6.4c1.4,0.4,2.8,0.6,4.2,0.6c5.9,0,11.3-3.9,13.1-9.8c1.3-4,0.5-8.2-1.6-11.5c-1.7-2.7-4.6-4.8-7.9-5.8
			c-18.9-5.8-37.2-10.6-57.9-14.4v18.7c0,27.5-22.5,49.9-50,49.9c-22.3,0-41.4-14.5-47.5-34.8c-5.2-17.4,0.5-37.5-10.7-38
			c-11.1,0.5-5.5,20.6-10.7,38c-6.1,20.3-25.9,34.8-48.2,34.8c-27.6,0-50.9-22.3-50.9-49.9v-18.2c-19,3.8-38.5,8.6-57.3,14.4
			c-3,0.9-5.3,2.8-7,5.2c-2.4,3.4-3.2,7.8-1.9,12.1c1.8,5.9,7.3,9.8,13.2,9.8l0,0C94.8,307.9,96.2,307.7,97.5,307.3z"/>
	</g>
	<g id="v1" class="st1">
		<path class="st2" d="M450,286.2c-1.9-3.3-5.1-5.9-8.8-7.2c-21.1-7.2-41.4-13.1-64.5-17.8c0,0-5.3-1.4-15.4-3.1
			c-1.4,41.3-11.3,83.9-46.9,83.9c-33.3,0-46-37.8-46.8-76.5c-0.2-9.4-3.5-16.5-12-16.5l0,0c-8.6,0-12.2,7-12.7,16.5
			c-2.3,38.7-16.8,76.5-50.2,76.5c-35.3,0-43.7-42.3-43.4-83.5c-10.2,1.9-15.5,3.3-15.5,3.3c-21.2,4.7-42.9,10.6-63.9,17.8
			c-3.3,1.1-5.9,3.5-7.8,6.4c-2.7,4.2,34,20.9,42.6,18.4c13,79.8,75.8,140.2,151.2,140.2c75.7,0,138.6-60.7,151.3-140.8
			C415.7,306.3,452.3,290.3,450,286.2z"/>
		<g class="st3">
			<path class="st0" d="M309.1,365.2c-3.4,22.7-26.1,40.3-53.7,40.3s-50.3-17.6-53.7-40.3h-19.5c3.5,31.9,34.9,56.9,73.2,56.9
				s69.7-25,73.2-56.9H309.1z"/>
		</g>
		<path class="st2" d="M282.3,77.3h-52.7C108,89.7,83.4,187.3,83,223.7c0,0.2,0,5.7,0,13.3c0,2.6,0,5.3,0,8.3c0,0.2,0.2,0.5,0.5,0.3
			c35.9-9.9,64.4-23.7,172.8-23.7c108.5,0,136.9,13.8,172.9,23.6c0.2,0.1,0.5-0.1,0.5-0.3c0-2.9,0-5.6,0-8.3c0-7.6,0-13.1,0-13.3
			C429.4,187.2,403.9,89.7,282.3,77.3z"/>
		<path class="st4" d="M359.9,197.2c4.9,13,18,19.1,29.4,13.3s16.6-21,11.7-34.1c-4.9-13-40.9-38.9-40.9-38.9
			S355.1,184.1,359.9,197.2z"/>
	</g>
</g>
<path class="st5" d="M450,284.2c-1.9-2.9-5.1-5.2-8.8-6.4c-21.1-6.4-41.4-11.6-64.5-15.8c0,0-5.3-1.2-15.4-2.7
	c-1.4,36.5-11.3,74.2-46.9,74.2c-33.3,0-46-33.5-46.8-67.7c-0.2-8.3-3.5-14.6-12-14.6c-8.6,0-12.2,6.2-12.7,14.6
	c-2.3,34.2-16.8,67.7-50.2,67.7c-35.3,0-43.7-37.4-43.4-73.9c-10.2,1.7-15.5,2.9-15.5,2.9c-21.2,4.2-42.9,9.4-63.9,15.8
	c-3.3,1-5.9,3.1-7.8,5.7c-2.7,3.7,34,18.5,42.6,16.3c13,70.6,75.8,124.1,151.2,124.1c75.7,0,138.6-53.7,151.3-124.6
	C415.7,302,452.3,287.8,450,284.2z M255.4,404.5c-38.3,0-69.7-22.1-73.2-50.4h19.5c3.4,20.1,26.1,35.7,53.7,35.7
	s50.3-15.6,53.7-35.7h19.5C325.1,382.3,293.7,404.5,255.4,404.5z"/>
<path class="st5" d="M282.3,80.6h-52.7C108,93,83.4,190.6,83,227c0,0.2,0,5.7,0,13.3c0,2.6,0,5.3,0,8.3c0,0.2,0.2,0.5,0.5,0.3
	c35.9-9.9,64.4-23.7,172.8-23.7c108.5,0,136.9,13.8,172.9,23.6c0.2,0.1,0.5-0.1,0.5-0.3c0-2.9,0-5.6,0-8.3c0-7.6,0-13.1,0-13.3
	C429.4,190.5,403.9,93,282.3,80.6z M389.3,213.8c-11.4,5.8-24.5-0.3-29.4-13.3c-4.8-13.1,0.2-59.7,0.2-59.7s36,25.9,40.9,38.9
	C405.9,192.8,400.7,208,389.3,213.8z"/>
</svg>
