<?xml version="1.0" encoding="utf-8"?>
<!-- Generator: Adobe Illustrator 23.1.1, SVG Export Plug-In . SVG Version: 6.00 Build 0)  -->
<svg version="1.1" id="Layer_1" xmlns="http://www.w3.org/2000/svg" xmlns:xlink="http://www.w3.org/1999/xlink" x="0px" y="0px"
	 viewBox="0 0 1012.8 994.6" style="enable-background:new 0 0 1012.8 994.6;" xml:space="preserve">
<style type="text/css">
	.st0{stroke:#000000;stroke-miterlimit:10;}
	.st1{fill:#FFFFFF;}
</style>
<rect class="st0" width="1012.8" height="994.6"/>
<g>
	<path class="st1" d="M501.4,923.8L189.9,924L309.1,73.5l312.7-0.1c125.6-0.1,213.7,72,194.5,206.5c-13.3,90.1-47,150.2-150.8,192.2
		c134,38.4,147.4,134.5,132.9,224.6C770.6,872.1,649.9,923.8,501.4,923.8z M506.2,895c136.4,2.4,241.4-51.7,261.9-199.5
		c21.7-148.9-60.4-209-204.1-207.7l-282.5,0.1l-57.8,407.2L506.2,895z M567.6,459c112.3-0.1,201.6-55.4,219.6-177.9
		C804.1,162.2,726.8,101,618.1,101l-282.5,0.1l-50.6,358L567.6,459z"/>
	<rect x="71.6" y="74.8" class="st1" width="865.5" height="24.7"/>
	<path class="st1" d="M937.4,100.6l-866.1,0.4V73.7l866.1-0.4V100.6z M71.9,98.4l864.9-0.4V75.9L71.9,76.2L71.9,98.4z"/>
</g>
</svg>
